<svg width="23" height="24" viewBox="0 0 23 24" fill="none" xmlns="http://www.w3.org/2000/svg">
<g clip-path="url(#clip0_1_252)">
<path d="M1.53164 3.8548C2.05261 2.89968 2.78415 2.14516 3.7191 1.60058C4.66334 1.03078 5.74034 0.753418 6.93191 0.753418C8.14098 0.753418 9.22831 1.02982 10.1742 1.60058C11.1091 2.14517 11.8406 2.89968 12.3616 3.8548C12.884 4.81238 13.1396 5.88177 13.1396 7.04953V17.3331C13.1396 17.7659 13.2424 18.1443 13.442 18.4821C13.6504 18.8346 13.9172 19.1083 14.2448 19.3122C14.5882 19.514 14.9466 19.6116 15.3297 19.6116C15.7144 19.6116 16.0603 19.5133 16.38 19.3153C16.7058 19.1137 16.9602 18.8447 17.1486 18.4994L17.1534 18.4906L17.1584 18.4821C17.358 18.1443 17.4608 17.7659 17.4608 17.3331V1.68672V1.10701H18.0406H20.8693H21.449V1.68672V16.9501C21.449 18.1178 21.1934 19.1872 20.671 20.1448C20.1522 21.096 19.4343 21.8583 18.5225 22.4227L18.5182 22.4254L18.5138 22.4279C17.5867 22.9799 16.5186 23.2462 15.3297 23.2462C14.1404 23.2462 13.0651 22.9797 12.1212 22.431L12.1142 22.4269L12.1074 22.4227C11.1956 21.8583 10.4777 21.096 9.95891 20.1448C9.43658 19.1872 9.18091 18.1178 9.18091 16.9501V6.66646C9.18091 6.23372 9.07804 5.85528 8.87851 5.51754C8.67284 5.16957 8.39931 4.89604 8.05138 4.69041C7.71011 4.48878 7.34078 4.38798 6.93191 4.38798C6.52506 4.38798 6.15738 4.48777 5.81759 4.68739C5.4926 4.88967 5.22748 5.16054 5.01992 5.5089C4.83726 5.84724 4.74182 6.2291 4.74182 6.66646V22.3129V22.8926H4.1621H1.33338H0.753662V22.3129V7.04953C0.753662 5.88177 1.00932 4.81238 1.53164 3.8548ZM1.53164 3.8548L2.0313 4.12734" stroke="url(#paint0_linear_1_252)" stroke-width="1.15942"/>
</g>
<defs>
<linearGradient id="paint0_linear_1_252" x1="22.761" y1="0.213442" x2="0.0477015" y2="24.1545" gradientUnits="userSpaceOnUse">
<stop stop-color="#5EEAD4"/>
<stop offset="1" stop-color="#0D9488"/>
</linearGradient>
<clipPath id="clip0_1_252">
<rect width="22.6667" height="24" fill="white"/>
</clipPath>
</defs>
</svg>
